# xmcd
#
# Track frame offsets:
#	150
#	15150
#	38635
#	53608
#	67114
#
# Disc length: 1070 seconds
#
# Revision: 1
# Processed by: cddbd v1.5.2PL0 Copyright (c) Steve Scherf et al.
# Submitted via: audiograbber 1.83.01
#
DISCID=32042c05
DTITLE=De Boore - So ein Tag so schön wie heute
DYEAR=2008
DGENRE=deutsch
TTITLE0=So ein Tag so schön wie heute (Radiomix)
TTITLE1=So ein Tag so schön wie heute (Bärchens Superlangmix)
TTITLE2=So ein Tag so schön wie heute (Boore Solomix)
TTITLE3=Immer noch jood dropp
TTITLE4=Wenn mir einmol an d'r Thek stonn
EXTD=
EXTT0=
EXTT1=
EXTT2=
EXTT3=
EXTT4=
PLAYORDER=
